<svg aria-hidden="true" style="position: absolute; width: 0; height: 0; overflow: hidden;" version="1.1" xmlns="http://www.w3.org/2000/svg" xmlns:xlink="http://www.w3.org/1999/xlink">
<defs>
<symbol id="icon-heart-handshake" viewBox="0 0 32 32">
<path stroke-linejoin="round" stroke-linecap="round" stroke-miterlimit="4" stroke-width="1.4118" d="M27.54 6.107c-0.669-0.671-1.464-1.204-2.339-1.567s-1.813-0.55-2.761-0.55-1.886 0.187-2.761 0.55c-0.875 0.363-1.67 0.896-2.339 1.567l-1.027 1.040-1.027-1.040c-0.669-0.671-1.464-1.204-2.339-1.567s-1.813-0.55-2.761-0.55-1.886 0.187-2.761 0.55c-0.875 0.363-1.67 0.896-2.339 1.567-2.827 2.827-3 7.6 0.56 11.227l10.667 10.667 10.667-10.667c3.56-3.627 3.387-8.4 0.56-11.227z"></path>
<path stroke-linejoin="round" stroke-linecap="round" stroke-miterlimit="4" stroke-width="1.4118" d="M16.314 7.147l-4.173 4.187c-0.528 0.532-0.824 1.251-0.824 2s0.296 1.468 0.824 2c0.532 0.528 1.251 0.824 2 0.824s1.468-0.296 2-0.824l3.013-2.947c0.749-0.741 1.76-1.157 2.813-1.157s2.064 0.416 2.813 1.157l3.2 3.2"></path>
<path stroke-linejoin="round" stroke-linecap="round" stroke-miterlimit="4" stroke-width="1.4118" d="M24.314 20l-2.667-2.667"></path>
<path stroke-linejoin="round" stroke-linecap="round" stroke-miterlimit="4" stroke-width="1.4118" d="M20.314 24l-2.667-2.667"></path>
</symbol>
<symbol id="icon-globe" viewBox="0 0 32 32">
<path stroke-linejoin="round" stroke-linecap="round" stroke-miterlimit="4" stroke-width="1.4118" d="M16.157 29.333c7.364 0 13.333-5.97 13.333-13.333s-5.97-13.333-13.333-13.333c-7.364 0-13.333 5.97-13.333 13.333s5.97 13.333 13.333 13.333z"></path>
<path stroke-linejoin="round" stroke-linecap="round" stroke-miterlimit="4" stroke-width="1.4118" d="M2.824 16h26.667"></path>
<path stroke-linejoin="round" stroke-linecap="round" stroke-miterlimit="4" stroke-width="1.4118" d="M16.157 2.667c3.335 3.651 5.23 8.389 5.333 13.333-0.103 4.944-1.998 9.682-5.333 13.333-3.335-3.651-5.23-8.389-5.333-13.333 0.103-4.944 1.998-9.682 5.333-13.333z"></path>
</symbol>
<symbol id="icon-clipboard-list" viewBox="0 0 32 32">
<path stroke-linejoin="round" stroke-linecap="round" stroke-miterlimit="4" stroke-width="1.4118" d="M20 2.667h-8c-0.736 0-1.333 0.597-1.333 1.333v2.667c0 0.736 0.597 1.333 1.333 1.333h8c0.736 0 1.333-0.597 1.333-1.333v-2.667c0-0.736-0.597-1.333-1.333-1.333z"></path>
<path stroke-linejoin="round" stroke-linecap="round" stroke-miterlimit="4" stroke-width="1.4118" d="M21.333 5.333h2.667c0.707 0 1.386 0.281 1.886 0.781s0.781 1.178 0.781 1.886v18.667c0 0.707-0.281 1.386-0.781 1.886s-1.178 0.781-1.886 0.781h-16c-0.707 0-1.386-0.281-1.886-0.781s-0.781-1.178-0.781-1.886v-18.667c0-0.707 0.281-1.386 0.781-1.886s1.178-0.781 1.886-0.781h2.667"></path>
<path stroke-linejoin="round" stroke-linecap="round" stroke-miterlimit="4" stroke-width="0.9412" d="M16 14.667h5.333"></path>
<path stroke-linejoin="round" stroke-linecap="round" stroke-miterlimit="4" stroke-width="0.9412" d="M16 21.333h5.333"></path>
<path stroke-linejoin="round" stroke-linecap="round" stroke-miterlimit="4" stroke-width="0.9412" d="M10.667 14.667h0.013"></path>
<path stroke-linejoin="round" stroke-linecap="round" stroke-miterlimit="4" stroke-width="0.9412" d="M10.667 21.333h0.013"></path>
</symbol>
<symbol id="icon-users" viewBox="0 0 32 32">
<path stroke-linejoin="round" stroke-linecap="round" stroke-miterlimit="4" stroke-width="1.4118" d="M21.333 28v-2.667c0-1.415-0.562-2.771-1.562-3.771s-2.357-1.562-3.771-1.562h-8c-1.415 0-2.771 0.562-3.771 1.562s-1.562 2.357-1.562 3.771v2.667"></path>
<path stroke-linejoin="round" stroke-linecap="round" stroke-miterlimit="4" stroke-width="1.4118" d="M12 14.667c2.945 0 5.333-2.388 5.333-5.333s-2.388-5.333-5.333-5.333-5.333 2.388-5.333 5.333c0 2.946 2.388 5.333 5.333 5.333z"></path>
<path stroke-linejoin="round" stroke-linecap="round" stroke-miterlimit="4" stroke-width="1.4118" d="M29.333 28v-2.667c-0.001-1.182-0.394-2.33-1.118-3.264s-1.738-1.601-2.882-1.896"></path>
<path stroke-linejoin="round" stroke-linecap="round" stroke-miterlimit="4" stroke-width="1.4118" d="M21.333 4.173c1.147 0.294 2.164 0.961 2.89 1.896s1.12 2.086 1.12 3.27-0.394 2.335-1.12 3.27c-0.726 0.935-1.743 1.603-2.89 1.896"></path>
</symbol>
<symbol id="icon-home" viewBox="0 0 32 32">
<path fill="#fef08a" style="fill: var(--color1, #fef08a)" d="M16.107 0c8.837 0 16 7.163 16 16s-7.163 16-16 16c-8.837 0-16-7.163-16-16s7.163-16 16-16z"></path>
<path fill="none" stroke="#000" style="stroke: var(--color2, #000)" stroke-linejoin="round" stroke-linecap="round" stroke-miterlimit="4" stroke-width="0.8533" d="M8.907 13.6l7.2-5.6 7.2 5.6v8.8c0 0.424-0.169 0.831-0.469 1.131s-0.707 0.469-1.131 0.469h-11.2c-0.424 0-0.831-0.169-1.131-0.469s-0.469-0.707-0.469-1.131v-8.8z"></path>
<path fill="none" stroke="#000" style="stroke: var(--color2, #000)" stroke-linejoin="round" stroke-linecap="round" stroke-miterlimit="4" stroke-width="0.8533" d="M13.707 24v-8h4.8v8"></path>
</symbol>
<symbol id="icon-food" viewBox="0 0 32 32">
<path fill="#fef08a" style="fill: var(--color1, #fef08a)" d="M16.107 0c8.837 0 16 7.163 16 16s-7.163 16-16 16c-8.837 0-16-7.163-16-16s7.163-16 16-16z"></path>
<path fill="none" stroke="#000" style="stroke: var(--color2, #000)" stroke-linejoin="round" stroke-linecap="round" stroke-miterlimit="4" stroke-width="0.8533" d="M8.907 8v5.6c0 0.88 0.72 1.6 1.6 1.6h3.2c0.424 0 0.831-0.169 1.131-0.469s0.469-0.707 0.469-1.131v-5.6"></path>
<path fill="none" stroke="#000" style="stroke: var(--color2, #000)" stroke-linejoin="round" stroke-linecap="round" stroke-miterlimit="4" stroke-width="0.8533" d="M12.107 8v16"></path>
<path fill="none" stroke="#000" style="stroke: var(--color2, #000)" stroke-linejoin="round" stroke-linecap="round" stroke-miterlimit="4" stroke-width="0.8533" d="M23.307 18.4v-10.4c-1.061 0-2.078 0.421-2.828 1.172s-1.172 1.768-1.172 2.828v4.8c0 0.88 0.72 1.6 1.6 1.6h2.4zM23.307 18.4v5.6"></path>
</symbol>
<symbol id="icon-medical" viewBox="0 0 32 32">
<path fill="#fef08a" style="fill: var(--color1, #fef08a)" d="M16.107 0c8.837 0 16 7.163 16 16s-7.163 16-16 16c-8.837 0-16-7.163-16-16s7.163-16 16-16z"></path>
<path fill="none" stroke="#000" style="stroke: var(--color2, #000)" stroke-linejoin="round" stroke-linecap="round" stroke-miterlimit="4" stroke-width="0.8533" d="M16.107 24c4.418 0 8-3.582 8-8s-3.582-8-8-8c-4.418 0-8 3.582-8 8s3.582 8 8 8z"></path>
<path fill="none" stroke="#000" style="stroke: var(--color2, #000)" stroke-linejoin="round" stroke-linecap="round" stroke-miterlimit="4" stroke-width="0.8533" d="M16.107 12.8v6.4"></path>
<path fill="none" stroke="#000" style="stroke: var(--color2, #000)" stroke-linejoin="round" stroke-linecap="round" stroke-miterlimit="4" stroke-width="0.8533" d="M12.907 16h6.4"></path>
</symbol>
<symbol id="icon-education" viewBox="0 0 32 32">
<path fill="#fef08a" style="fill: var(--color1, #fef08a)" d="M16.107 0c8.837 0 16 7.163 16 16s-7.163 16-16 16c-8.837 0-16-7.163-16-16s7.163-16 16-16z"></path>
<path fill="none" stroke="#000" style="stroke: var(--color2, #000)" stroke-linejoin="round" stroke-linecap="round" stroke-miterlimit="4" stroke-width="0.8533" d="M24.107 14.4v4.8M24.107 14.4l-8-4-8 4 8 4 8-4z"></path>
<path fill="none" stroke="#000" style="stroke: var(--color2, #000)" stroke-linejoin="round" stroke-linecap="round" stroke-miterlimit="4" stroke-width="0.8533" d="M11.307 16v4c2.4 2.4 7.2 2.4 9.6 0v-4"></path>
</symbol>
<symbol id="icon-nature" viewBox="0 0 32 32">
<path fill="#fef08a" style="fill: var(--color1, #fef08a)" d="M16.107 0c8.837 0 16 7.163 16 16s-7.163 16-16 16c-8.837 0-16-7.163-16-16s7.163-16 16-16z"></path>
<path fill="none" stroke="#000" style="stroke: var(--color2, #000)" stroke-linejoin="round" stroke-linecap="round" stroke-miterlimit="4" stroke-width="0.8533" d="M12.907 21.6h6.4c0.679-0.003 1.339-0.221 1.886-0.624s0.951-0.969 1.154-1.616c0.202-0.658 0.187-1.363-0.044-2.012s-0.664-1.205-1.236-1.588c0.8-0.88 0.8-2.16 0.32-3.2-0.56-0.96-1.76-1.6-2.88-1.36 0-0.637-0.253-1.247-0.703-1.697s-1.061-0.703-1.697-0.703c-0.637 0-1.247 0.253-1.697 0.703s-0.703 1.061-0.703 1.697c-1.12-0.16-2.32 0.4-2.88 1.36-0.56 1.040-0.4 2.32 0.32 3.2-0.572 0.383-1.006 0.939-1.236 1.588s-0.246 1.354-0.044 2.012c0.204 0.648 0.608 1.214 1.154 1.616s1.207 0.621 1.886 0.624z"></path>
<path fill="none" stroke="#000" style="stroke: var(--color2, #000)" stroke-linejoin="round" stroke-linecap="round" stroke-miterlimit="4" stroke-width="0.8533" d="M16.107 21.6v2.4"></path>
</symbol>
<symbol id="icon-heart" viewBox="0 0 32 32">
<path fill="#fef08a" style="fill: var(--color1, #fef08a)" d="M16.107 0c8.837 0 16 7.163 16 16s-7.163 16-16 16c-8.837 0-16-7.163-16-16s7.163-16 16-16z"></path>
<path fill="none" stroke="#000" style="stroke: var(--color2, #000)" stroke-linejoin="round" stroke-linecap="round" stroke-miterlimit="4" stroke-width="0.8533" d="M22.843 10.064c-0.401-0.403-0.878-0.722-1.403-0.94s-1.088-0.33-1.657-0.33-1.132 0.112-1.657 0.33c-0.525 0.218-1.002 0.538-1.403 0.94l-0.616 0.624-0.616-0.624c-0.401-0.403-0.878-0.722-1.403-0.94s-1.088-0.33-1.657-0.33c-0.569 0-1.132 0.112-1.657 0.33s-1.002 0.538-1.403 0.94c-1.696 1.696-1.8 4.56 0.336 6.736l6.4 6.4 6.4-6.4c2.136-2.176 2.032-5.040 0.336-6.736z"></path>
</symbol>
</defs>
</svg>
